<svg width="64" height="45" viewBox="0 0 64 45" fill="none" xmlns="http://www.w3.org/2000/svg">
<path d="M34 43V2L40.3226 7.98673V18.146L59.8323 36.8319H46.2839C48.1221 33.6921 46.107 31.2231 40.3226 26.3097V36.8319L34 43Z" stroke="#FF0000"/>
<path d="M34 43V2L40.3226 7.98673V18.146L59.8323 36.8319H46.2839C48.1221 33.6921 46.107 31.2231 40.3226 26.3097V36.8319L34 43Z" stroke="#FF0000"/>
<path d="M34 43V2L40.3226 7.98673V18.146L59.8323 36.8319H46.2839C48.1221 33.6921 46.107 31.2231 40.3226 26.3097V36.8319L34 43Z" stroke="white"/>
<path d="M47.729 21.2301L62 5.4469H47.729C46.2839 5.4469 51.8839 7.44248 46.2839 13.2478L42.8516 16.5133L47.729 21.2301Z" stroke="#FF0000"/>
<path d="M47.729 21.2301L62 5.4469H47.729C46.2839 5.4469 51.8839 7.44248 46.2839 13.2478L42.8516 16.5133L47.729 21.2301Z" stroke="#FF0000"/>
<path d="M47.729 21.2301L62 5.4469H47.729C46.2839 5.4469 51.8839 7.44248 46.2839 13.2478L42.8516 16.5133L47.729 21.2301Z" stroke="white"/>
<path d="M30 43V2L23.6774 7.98673V18.146L4.16774 36.8319H17.7161C15.8779 33.6921 17.893 31.2231 23.6774 26.3097V36.8319L30 43Z" stroke="#FF0000"/>
<path d="M30 43V2L23.6774 7.98673V18.146L4.16774 36.8319H17.7161C15.8779 33.6921 17.893 31.2231 23.6774 26.3097V36.8319L30 43Z" stroke="#FF0000"/>
<path d="M30 43V2L23.6774 7.98673V18.146L4.16774 36.8319H17.7161C15.8779 33.6921 17.893 31.2231 23.6774 26.3097V36.8319L30 43Z" stroke="white"/>
<path d="M16.271 21.2301L2 5.4469H16.271C17.7161 5.4469 12.1161 7.44248 17.7161 13.2478L21.1484 16.5133L16.271 21.2301Z" stroke="#FF0000"/>
<path d="M16.271 21.2301L2 5.4469H16.271C17.7161 5.4469 12.1161 7.44248 17.7161 13.2478L21.1484 16.5133L16.271 21.2301Z" stroke="#FF0000"/>
<path d="M16.271 21.2301L2 5.4469H16.271C17.7161 5.4469 12.1161 7.44248 17.7161 13.2478L21.1484 16.5133L16.271 21.2301Z" stroke="white"/>
</svg>
